<?xml version="1.0" standalone="no"?><!DOCTYPE svg PUBLIC "-//W3C//DTD SVG 1.1//EN" "http://www.w3.org/Graphics/SVG/1.1/DTD/svg11.dtd"><svg t="1733215225357" class="icon" viewBox="0 0 1024 1024" version="1.1" xmlns="http://www.w3.org/2000/svg" p-id="3364" xmlns:xlink="http://www.w3.org/1999/xlink" width="200" height="200"><path d="M712.5 917.3h-401c-30.6 0-55.5-24.9-55.5-55.5V162.1c0-30.6 24.9-55.5 55.5-55.5h401.1c30.6 0 55.5 24.9 55.5 55.5v699.8c-0.1 30.6-25 55.4-55.6 55.4z m-401-768c-7.1 0-12.8 5.7-12.8 12.8v699.8c0 7 5.7 12.8 12.8 12.8h401.1c7 0 12.8-5.8 12.8-12.8V162.1c0-7.1-5.8-12.8-12.8-12.8H311.5z" fill="#2C53FF" p-id="3365"></path><path d="M763.5 713.8H256.9V316.4h506.6v397.4z m-463.9-42.7h421.3v-312H299.6v312z" fill="#2C53FF" p-id="3366"></path><path d="M370.2 492.4h74.7v93.3h-74.7zM574.2 492.4h74.7v93.3h-74.7z" fill="#2C53FF" p-id="3367"></path><path d="M313.2 565.8h392.7v66.7H313.2z" fill="#2C53FF" p-id="3368"></path></svg>